<?xml version="1.0" encoding="utf-8"?>
<!-- Generator: Adobe Illustrator 16.0.0, SVG Export Plug-In . SVG Version: 6.00 Build 0)  -->
<!DOCTYPE svg PUBLIC "-//W3C//DTD SVG 1.1//EN" "http://www.w3.org/Graphics/SVG/1.1/DTD/svg11.dtd">
<svg version="1.1" id="Layer_1" xmlns="http://www.w3.org/2000/svg" xmlns:xlink="http://www.w3.org/1999/xlink" x="0px" y="0px"
	 width="612px" height="792px" viewBox="0 0 612 792" style="enable-background:new 0 0 612 792;" xml:space="preserve">
<style type="text/css">
<![CDATA[
	.st0{fill:#FFFFFF;stroke:#000000;stroke-miterlimit:10;}
	.st1{font-family:'MyriadPro-Regular';}
	.st2{fill:none;stroke:#000000;stroke-miterlimit:10;}
	.st3{fill:none;}
	.st4{font-size:48;}
]]>
</style>
<text transform="matrix(1 0 0 1 97.4653 128.4727)" class="st1 st4">Hello World</text>
<line class="st3" x1="97.5" y1="235" x2="278.3" y2="172.3"/>
<path class="st0" d="M191.7,208.3c0,82.2,44.4,148.7,99.3,148.7"/>
<path class="st2" d="M429.7,367.7c-58.9-26.5-85.2-95.8-58.7-154.7c21.2-47.1,76.6-68.1,123.7-46.9c37.7,17,54.5,61.3,37.5,99
	c-13.6,30.2-49,43.6-79.2,30c-24.1-10.9-34.9-39.2-24-63.4c8.7-19.3,31.4-27.9,50.7-19.2c15.4,6.9,22.3,25.1,15.4,40.5
	c-5.6,12.4-20.1,17.9-32.4,12.3c-9.9-4.4-14.3-16.1-9.8-25.9c3.6-7.9,12.9-11.4,20.8-7.9"/>
</svg>
