<?xml version="1.0" encoding="utf-8"?>
<!-- Generator: Adobe Illustrator 16.0.0, SVG Export Plug-In . SVG Version: 6.00 Build 0)  -->
<!DOCTYPE svg PUBLIC "-//W3C//DTD SVG 1.1//EN" "http://www.w3.org/Graphics/SVG/1.1/DTD/svg11.dtd">
<svg version="1.1" id="Layer_1" xmlns="http://www.w3.org/2000/svg" xmlns:xlink="http://www.w3.org/1999/xlink" x="0px" y="0px"
	 width="503px" height="128.2px" viewBox="0 0 503 128.2" enable-background="new 0 0 503 128.2" xml:space="preserve">
<g>
	<path d="M108.2,45.3V14.7h-5.2V9.6h31.6v12.3h-5v-7.2h-15.3v12.1h13.2v5.1h-13.2v13.4h5.2v5.1h-16.5v-5.1H108.2z"/>
	<path d="M142.1,45.4V27h-5.7v-5h10.2v6.4c0.6-1.7,1.5-3,2.6-4.1c1.1-1.1,2.3-1.8,3.5-2.2c1.2-0.4,2.9-0.5,5.1-0.5h1.5v5.6h-1.1
		c-2.8,0-4.9,0.3-6.3,0.8c-1.4,0.6-2.4,1.6-3.1,3.1s-1,4.2-1,8v6.2h6.2v5h-17.5v-5H142.1z"/>
	<path d="M189.3,37.6h-23.8c0.4,2.6,1.4,4.7,3.1,6.4c1.7,1.6,3.9,2.4,6.6,2.4c3.9,0,7-1.6,9.2-4.7l4.9,2.2c-1.6,2.5-3.7,4.3-6.2,5.5
		s-5.2,1.8-8,1.8c-4.3,0-8-1.4-11.1-4.1c-3.1-2.7-4.6-6.4-4.6-10.9c0-4.4,1.5-7.9,4.5-10.8c3-2.8,6.4-4.2,10.3-4.2
		c3.8,0,7.3,1.4,10.4,4.1C187.6,28.1,189.2,32.2,189.3,37.6z M183.6,33.6c-0.4-2-1.4-3.8-3.1-5.4c-1.7-1.6-3.7-2.4-6.2-2.4
		c-2.2,0-4.1,0.7-5.7,2.2c-1.6,1.5-2.5,3.3-2.9,5.6H183.6z"/>
	<path d="M193.4,33.5H211v5.6h-17.6V33.5z"/>
	<path d="M244.9,37.6h-23.8c0.4,2.6,1.4,4.7,3.1,6.4c1.7,1.6,3.9,2.4,6.6,2.4c3.9,0,7-1.6,9.2-4.7l4.9,2.2c-1.6,2.5-3.7,4.3-6.2,5.5
		s-5.2,1.8-8,1.8c-4.3,0-8-1.4-11.1-4.1c-3.1-2.7-4.6-6.4-4.6-10.9c0-4.4,1.5-7.9,4.5-10.8s6.4-4.2,10.3-4.2c3.8,0,7.3,1.4,10.4,4.1
		C243.2,28.1,244.8,32.2,244.9,37.6z M239.2,33.6c-0.4-2-1.4-3.8-3.1-5.4s-3.7-2.4-6.2-2.4c-2.2,0-4.1,0.7-5.7,2.2
		c-1.6,1.5-2.5,3.3-2.9,5.6H239.2z"/>
	<path d="M253.5,45.3V14.7h-5V9.6h13.6c3.7,0,6.5,0.2,8.4,0.7c1.9,0.4,3.5,1.6,4.9,3.4c1.4,1.8,2.1,4,2.1,6.4c0,1.9-0.4,3.6-1.3,5.1
		s-2.1,2.7-3.7,3.5c2.3,0.8,4,2.1,5.2,3.9c1.2,1.8,1.8,3.9,1.8,6.2c0,2-0.5,3.8-1.4,5.5s-2.1,2.9-3.6,3.8c-1.5,0.9-3.1,1.5-4.9,1.8
		c-1.8,0.3-4.2,0.5-7.3,0.5h-13.9v-5.1H253.5z M259.7,26.6h3.8c2.9,0,5-0.5,6.1-1.5s1.7-2.5,1.7-4.5c0-3.9-2.6-5.8-7.9-5.8h-3.8
		V26.6z M259.7,45.3h2.3c3,0,5.2-0.2,6.7-0.5c1.4-0.3,2.6-1,3.4-2.1c0.9-1.1,1.3-2.6,1.3-4.3c0-1.6-0.4-2.9-1.3-4s-1.9-1.8-3.3-2.2
		c-1.3-0.4-3.2-0.5-5.7-0.5h-3.5V45.3z"/>
	<path d="M284.4,36.2c0-4.4,1.4-8,4.3-10.8c2.9-2.8,6.4-4.2,10.6-4.2c4.1,0,7.6,1.4,10.5,4.1c2.9,2.8,4.4,6.4,4.4,10.8
		s-1.5,8.1-4.4,10.8c-2.9,2.8-6.4,4.2-10.5,4.2c-4.2,0-7.8-1.4-10.6-4.2S284.4,40.6,284.4,36.2z M290.3,36.2c0,2.8,0.9,5.1,2.6,6.9
		c1.7,1.8,3.9,2.7,6.4,2.7c2.6,0,4.7-0.9,6.4-2.7c1.7-1.8,2.6-4.1,2.6-6.9c0-2.8-0.9-5.1-2.6-6.9s-3.9-2.7-6.4-2.7
		c-2.6,0-4.8,0.9-6.5,2.8S290.3,33.5,290.3,36.2z"/>
	<path d="M318.8,36.2c0-4.4,1.4-8,4.3-10.8c2.9-2.8,6.4-4.2,10.6-4.2c4.1,0,7.6,1.4,10.5,4.1c2.9,2.8,4.4,6.4,4.4,10.8
		s-1.5,8.1-4.4,10.8c-2.9,2.8-6.4,4.2-10.5,4.2c-4.2,0-7.8-1.4-10.6-4.2S318.8,40.6,318.8,36.2z M324.7,36.2c0,2.8,0.9,5.1,2.6,6.9
		c1.7,1.8,3.9,2.7,6.4,2.7c2.6,0,4.7-0.9,6.4-2.7c1.7-1.8,2.6-4.1,2.6-6.9c0-2.8-0.9-5.1-2.6-6.9s-3.9-2.7-6.4-2.7
		c-2.6,0-4.8,0.9-6.5,2.8S324.7,33.5,324.7,36.2z"/>
	<path d="M357.5,45.4V14.6h-5.1v-5h10.7v25.5l10.6-8.5H369V22h15.7v4.6h-4.3l-10.6,8.8l10,10h5v5h-7.3l-14.3-14.3v9.3h4.9v5h-15.6
		v-5H357.5z"/>
	<path d="M387.8,50.4v-9.7h5v0.9c0.2,1.3,0.9,2.4,2.2,3.3c1.3,0.9,2.7,1.3,4.5,1.3c1.8,0,3.2-0.3,4.3-0.9c1.1-0.6,1.6-1.5,1.6-2.6
		c0-1.1-0.4-1.9-1.3-2.4c-0.9-0.5-2.7-1-5.3-1.4c-3.9-0.7-6.7-1.7-8.4-3.2s-2.5-3.4-2.5-5.7c0-2.4,0.9-4.3,2.7-5.9
		c1.8-1.6,4.2-2.4,7.2-2.4c2.7,0,5,0.6,6.9,1.7V22h5v9.4h-5v-1.7c-1.5-2.3-3.7-3.5-6.6-3.5c-1.5,0-2.7,0.3-3.6,1
		c-0.9,0.6-1.4,1.5-1.4,2.5c0,1.1,0.4,1.8,1.3,2.2c0.9,0.4,2.7,0.8,5.6,1.3c2.8,0.4,4.8,0.9,6.2,1.5c1.4,0.6,2.6,1.5,3.5,2.9
		c0.9,1.3,1.4,2.9,1.4,4.7c0,2.6-1,4.7-3,6.3c-2,1.6-4.6,2.3-7.9,2.3c-3,0-5.5-0.7-7.4-2.1v1.6H387.8z"/>
	<path d="M4.5,114.2V89.2H0.7v-4h8.3v3.6c2.2-2.6,4.9-3.9,8.1-3.9c3.2,0,5.8,1.1,7.9,3.3s3.1,5,3.1,8.5c0,3.7-1.1,6.6-3.4,8.7
		s-4.8,3.2-7.7,3.2c-3,0-5.7-1.2-8-3.5v9h4.4v4h-13v-4H4.5z M8.9,97c0,1.2,0.3,2.4,0.8,3.6s1.3,2.1,2.5,2.9s2.4,1.2,4,1.2
		c2.1,0,3.9-0.7,5.3-2.1s2.1-3.4,2.1-5.9c0-2.4-0.7-4.3-2.2-5.7s-3.1-2-4.9-2c-2,0-3.7,0.7-5.2,2.2S8.9,94.5,8.9,97z"/>
	<path d="M35.6,104V89.2h-4.6v-4h8.1v5.1c0.5-1.3,1.2-2.4,2.1-3.3s1.8-1.5,2.8-1.7s2.3-0.4,4.1-0.4h1.2v4.5h-0.9
		c-2.3,0-4,0.2-5.1,0.7s-1.9,1.3-2.5,2.5s-0.8,3.3-0.8,6.4v5H45v4h-14v-4H35.6z"/>
	<path d="M49.9,96.6c0-3.5,1.2-6.4,3.5-8.6s5.1-3.4,8.5-3.4c3.3,0,6.1,1.1,8.4,3.3s3.5,5.1,3.5,8.7s-1.2,6.5-3.5,8.7
		s-5.1,3.3-8.4,3.3c-3.4,0-6.2-1.1-8.5-3.4S49.9,100.1,49.9,96.6z M54.6,96.6c0,2.2,0.7,4.1,2.1,5.5c1.4,1.4,3.1,2.1,5.1,2.1
		c2,0,3.8-0.7,5.1-2.2s2.1-3.3,2.1-5.5c0-2.2-0.7-4.1-2.1-5.5c-1.4-1.4-3.1-2.2-5.1-2.2c-2.1,0-3.8,0.7-5.2,2.2
		C55.3,92.6,54.6,94.5,54.6,96.6z"/>
	<path d="M85.3,85.3V88c2.9-2.1,5.5-3.1,7.8-3.1c1.5,0,2.7,0.3,3.6,1s1.6,1.5,1.9,2.6s0.4,2.5,0.4,4.4V104h3.8v4h-8.3V93.1
		c0-1.7-0.3-2.8-0.8-3.4S92.8,89,92,89c-2,0-4.2,1-6.7,2.9V104h3.9v4H76.9v-4h4V89.2h-4v-4H85.3z"/>
	<path d="M105,96.6c0-3.5,1.2-6.4,3.5-8.6s5.1-3.4,8.5-3.4c3.3,0,6.1,1.1,8.4,3.3s3.5,5.1,3.5,8.7s-1.2,6.5-3.5,8.7
		s-5.1,3.3-8.4,3.3c-3.4,0-6.2-1.1-8.5-3.4S105,100.1,105,96.6z M109.7,96.6c0,2.2,0.7,4.1,2.1,5.5c1.4,1.4,3.1,2.1,5.1,2.1
		c2,0,3.8-0.7,5.1-2.2s2.1-3.3,2.1-5.5c0-2.2-0.7-4.1-2.1-5.5c-1.4-1.4-3.1-2.2-5.1-2.2c-2.1,0-3.8,0.7-5.2,2.2
		C110.3,92.6,109.7,94.5,109.7,96.6z"/>
	<path d="M157.2,104v4h-8.4v-2.6c-2.6,2-5.1,3-7.5,3c-1.5,0-2.8-0.3-3.8-1s-1.7-1.5-2-2.6s-0.5-2.8-0.5-5.1V89.2h-3.2v-4h7.7v13.8
		c0,1.7,0,2.8,0.1,3.4s0.4,1.1,0.8,1.4s1,0.6,1.7,0.6c2.1,0,4.3-1,6.6-3V89.2h-4v-4h8.5V104H157.2z"/>
	<path d="M180.9,85.3v8.6h-4c-0.2-1.6-0.9-2.9-2-3.8s-2.4-1.3-3.9-1.3c-2,0-3.6,0.7-4.9,2.1s-1.9,3.3-1.9,5.6c0,2.1,0.6,4,1.8,5.7
		s2.9,2.4,5.2,2.4c3.1,0,5.4-1.5,6.8-4.5l3.7,1.7c-2,4.5-5.6,6.8-10.7,6.8c-3.6,0-6.4-1.2-8.5-3.7s-3.1-5.3-3.1-8.5
		c0-3.4,1.1-6.2,3.4-8.5s4.8-3.3,7.8-3.3c2.5,0,4.6,0.7,6.4,2.2v-1.6H180.9z"/>
	<path d="M208.4,97.8h-19.1c0.3,2.1,1.1,3.8,2.5,5.1s3.1,1.9,5.3,1.9c3.1,0,5.6-1.2,7.4-3.8l3.9,1.7c-1.3,2-2.9,3.5-5,4.4
		s-4.2,1.4-6.4,1.4c-3.5,0-6.4-1.1-8.9-3.2s-3.7-5.1-3.7-8.8c0-3.5,1.2-6.4,3.6-8.6s5.2-3.4,8.3-3.4c3,0,5.8,1.1,8.3,3.3
		S208.3,93.4,208.4,97.8z M203.8,94.5c-0.3-1.6-1.1-3-2.5-4.3s-3-1.9-4.9-1.9c-1.8,0-3.3,0.6-4.6,1.7s-2,2.7-2.3,4.5H203.8z"/>
	<path d="M240.1,104v4h-8.5v-3.3c-2.2,2.5-4.9,3.7-8.1,3.7c-3,0-5.5-1-7.8-3s-3.4-4.9-3.4-8.6c0-3.7,1.1-6.7,3.4-8.8
		s4.9-3.2,7.8-3.2c3.1,0,5.7,1.2,8,3.7v-9h-4.4v-4h8.8V104H240.1z M217.1,96.6c0,2.5,0.7,4.4,2.1,5.8s3.1,2,5.1,2
		c1.9,0,3.6-0.7,5.1-2.1s2.2-3.4,2.2-5.9c0-2.5-0.8-4.4-2.3-5.7s-3.2-1.9-5.1-1.9c-2,0-3.7,0.8-5.1,2.3S217.1,94.4,217.1,96.6z"/>
	<path d="M269.1,74.7h3.9l-16.6,33.8h-3.9L269.1,74.7z"/>
	<path d="M277.8,104V89.2h-3.3v-3.9h3.3V82c0-2.8,0.6-4.7,1.8-5.7c1.2-1.1,2.6-1.6,4.1-1.6c3.4,0,5.4,1.7,6,5.2l-4,0.6
		c-0.2-1.5-0.7-2.2-1.7-2.2c-0.7,0-1.1,0.2-1.4,0.7c-0.2,0.5-0.4,1.4-0.4,3v3.3h3.9v3.9h-3.9V104h4.3v4h-12.1v-4H277.8z"/>
	<path d="M292.9,104V89.2h-4.6v-4h8.1v5.1c0.5-1.3,1.2-2.4,2.1-3.3s1.8-1.5,2.8-1.7s2.3-0.4,4.1-0.4h1.2v4.5h-0.9
		c-2.3,0-4,0.2-5.1,0.7s-1.9,1.3-2.5,2.5s-0.8,3.3-0.8,6.4v5h4.9v4h-14v-4H292.9z"/>
	<path d="M331.3,104.7c-0.8,1.2-2,2.1-3.5,2.8c-1.5,0.7-3.3,1-5.3,1c-2.1,0-4-0.3-5.6-0.9s-3-1.5-4.1-2.6c-1.1-1.1-1.9-2.5-2.5-4.1
		c-0.6-1.6-0.8-3.4-0.8-5.4c0-4.3,1.1-7.5,3.2-9.8c2.2-2.2,5.2-3.3,9.1-3.3c1.3,0,2.5,0.2,3.8,0.5c1.2,0.3,2.3,0.8,3.3,1.6
		c1,0.7,1.7,1.7,2.3,2.9c0.6,1.2,0.9,2.7,0.9,4.5c0,0.5,0,1.1-0.1,1.7c-0.1,0.6-0.2,1.2-0.3,1.9h-16.8c0,1.4,0.2,2.7,0.6,3.8
		s0.9,2.1,1.7,3c0.8,0.8,1.7,1.5,2.8,1.9c1.1,0.5,2.5,0.7,4,0.7c1.3,0,2.4-0.2,3.5-0.6c1.1-0.4,1.9-0.9,2.6-1.4L331.3,104.7z
		 M314.4,75.9v-2.7h13.8v2.7H314.4z M321.4,84.5c-1,0-1.9,0.1-2.6,0.4c-0.8,0.3-1.4,0.8-2,1.4c-0.5,0.7-1,1.6-1.3,2.7
		c-0.3,1.1-0.5,2.5-0.6,4.1h11.6c0-0.3,0.1-0.6,0.1-0.9c0-0.3,0-0.6,0-0.8c0-2.1-0.4-3.8-1.3-5C324.5,85.2,323.2,84.5,321.4,84.5z"
		/>
	<path d="M347.7,108v-4h4V79.3h-4v-4h8.4v13.1c2.2-2.6,5-3.8,8.2-3.8c3.1,0,5.7,1.1,7.9,3.2s3.2,5,3.2,8.5c0,3.4-1,6.2-3.1,8.5
		s-4.7,3.5-8,3.5c-1.8,0-3.5-0.4-5-1.2s-2.6-1.6-3.2-2.6v3.4H347.7z M356.2,96.7c0,2.4,0.7,4.2,2.2,5.6s3.1,2.1,5,2.1
		c2,0,3.7-0.7,5.1-2.2s2.2-3.4,2.2-5.9c0-2.4-0.7-4.2-2.1-5.6s-3.1-2-5-2c-1.9,0-3.6,0.7-5.1,2.1S356.2,94.1,356.2,96.7z"/>
	<path d="M379.2,96.6c0-3.5,1.2-6.4,3.5-8.6s5.1-3.4,8.5-3.4c3.3,0,6.1,1.1,8.4,3.3s3.5,5.1,3.5,8.7s-1.2,6.5-3.5,8.7
		s-5.1,3.3-8.4,3.3c-3.4,0-6.2-1.1-8.5-3.4S379.2,100.1,379.2,96.6z M384,96.6c0,2.2,0.7,4.1,2.1,5.5c1.4,1.4,3.1,2.1,5.1,2.1
		c2,0,3.8-0.7,5.1-2.2s2.1-3.3,2.1-5.5c0-2.2-0.7-4.1-2.1-5.5c-1.4-1.4-3.1-2.2-5.1-2.2c-2.1,0-3.8,0.7-5.2,2.2
		C384.6,92.6,384,94.5,384,96.6z"/>
	<path d="M397.1,70.1c0.3,1.2,1.2,2.3,2.7,3.2s3.2,1.4,5.2,1.4s3.6-0.5,5.1-1.4s2.4-2,2.7-3.2h6c-0.4,1.7-1.3,3.1-2.6,4.2
		s-3.1,1.9-5,2.5s-4,0.9-6.1,0.9s-4.1-0.3-6.1-0.9s-3.7-1.4-5.1-2.5s-2.3-2.5-2.7-4.2H397.1z"/>
	<path d="M406.8,96.6c0-3.5,1.2-6.4,3.5-8.6s5.1-3.4,8.5-3.4c3.3,0,6.1,1.1,8.4,3.3s3.5,5.1,3.5,8.7s-1.2,6.5-3.5,8.7
		s-5.1,3.3-8.4,3.3c-3.4,0-6.2-1.1-8.5-3.4S406.8,100.1,406.8,96.6z M411.5,96.6c0,2.2,0.7,4.1,2.1,5.5c1.4,1.4,3.1,2.1,5.1,2.1
		c2,0,3.8-0.7,5.1-2.2s2.1-3.3,2.1-5.5c0-2.2-0.7-4.1-2.1-5.5c-1.4-1.4-3.1-2.2-5.1-2.2c-2.1,0-3.8,0.7-5.2,2.2
		C412.2,92.6,411.5,94.5,411.5,96.6z"/>
	<path d="M437.7,104V79.3h-4.1v-4h8.5v20.4l8.5-6.8h-3.8v-3.7h12.5V89h-3.5l-8.5,7.1l8,8h4v4h-5.8l-11.4-11.4v7.5h3.9v4h-12.4v-4
		H437.7z"/>
	<path d="M461.9,108v-7.8h4v0.8c0.1,1.1,0.7,1.9,1.7,2.6s2.2,1,3.6,1c1.4,0,2.6-0.2,3.4-0.8s1.3-1.2,1.3-2.1c0-0.9-0.4-1.5-1.1-1.9
		s-2.1-0.8-4.2-1.1c-3.1-0.5-5.4-1.4-6.7-2.6c-1.3-1.2-2-2.7-2-4.6c0-1.9,0.7-3.5,2.2-4.7s3.4-1.9,5.7-1.9c2.1,0,4,0.4,5.5,1.3v-1h4
		v7.5h-4v-1.4c-1.2-1.9-3-2.8-5.2-2.8c-1.2,0-2.1,0.3-2.9,0.8s-1.1,1.2-1.1,2c0,0.9,0.3,1.4,1,1.8s2.2,0.7,4.5,1
		c2.2,0.3,3.9,0.7,5,1.2s2.1,1.2,2.8,2.3c0.7,1.1,1.1,2.3,1.1,3.7c0,2.1-0.8,3.8-2.4,5c-1.6,1.2-3.7,1.9-6.3,1.9
		c-2.4,0-4.4-0.5-5.9-1.7v1.3H461.9z"/>
	<path d="M498.8,74.7h3.9l-16.6,33.8h-3.9L498.8,74.7z"/>
</g>
</svg>
