<?xml version="1.0" encoding="utf-8"?>
<!-- Generator: Adobe Illustrator 16.0.0, SVG Export Plug-In . SVG Version: 6.00 Build 0)  -->
<!DOCTYPE svg PUBLIC "-//W3C//DTD SVG 1.1//EN" "http://www.w3.org/Graphics/SVG/1.1/DTD/svg11.dtd">
<svg version="1.1" id="Layer_1" xmlns="http://www.w3.org/2000/svg" xmlns:xlink="http://www.w3.org/1999/xlink" x="0px" y="0px"
	 width="360.6px" height="39.5px" viewBox="0 0 360.6 39.5" enable-background="new 0 0 360.6 39.5" xml:space="preserve">
<g>
	<path fill="#FFFFFF" d="M22.9,14.8h-9.9v-3.4c0-2.2-0.1-3.5-0.3-4.1s-0.6-0.8-1.3-0.8c-0.6,0-1,0.2-1.2,0.7s-0.3,1.7-0.3,3.6v18.2
		c0,1.7,0.1,2.8,0.3,3.4s0.7,0.8,1.3,0.8c0.7,0,1.2-0.3,1.5-0.9s0.4-1.8,0.4-3.6v-4.5h-2v-5.8h11.6v20.4h-6.2L15.8,36
		c-0.7,1.2-1.5,2.1-2.5,2.6c-1,0.6-2.2,0.9-3.6,0.9c-1.7,0-3.2-0.4-4.7-1.2c-1.4-0.8-2.5-1.8-3.3-3c-0.8-1.2-1.2-2.4-1.4-3.7
		S0,28.3,0,25.7V14.5c0-3.6,0.2-6.3,0.6-7.9s1.5-3.1,3.4-4.5S8.2,0,11.1,0c2.9,0,5.3,0.6,7.2,1.8s3.1,2.6,3.7,4.2s0.9,4,0.9,7.1
		V14.8z"/>
	<path fill="#FFFFFF" d="M26.7,0.8h16.5v7.6h-6.6v7.2h6.2v7.2h-6.2v8.3h7.2v7.6H26.7V0.8z"/>
	<path fill="#FFFFFF" d="M68.7,0.8v37.9h-8.6l-5.1-17.2v17.2h-8.2V0.8h8.2l5.5,17.1V0.8H68.7z"/>
	<path fill="#FFFFFF" d="M72.7,0.8h16.5v7.6h-6.6v7.2h6.2v7.2h-6.2v8.3h7.2v7.6H72.7V0.8z"/>
	<path fill="#FFFFFF" d="M92.6,0.8h7c4.7,0,7.8,0.2,9.5,0.5s3,1.3,4,2.8s1.6,3.8,1.6,7.1c0,3-0.4,4.9-1.1,6s-2.2,1.6-4.3,1.8
		c2,0.5,3.3,1.1,3.9,1.9s1.1,1.6,1.3,2.2s0.2,2.6,0.2,5.6v10h-9.2V26.1c0-2-0.2-3.3-0.5-3.8s-1.2-0.7-2.5-0.7v17.1h-9.9V0.8z
		 M102.5,7.3v8.4c1.1,0,1.9-0.2,2.3-0.5s0.7-1.3,0.7-3v-2.1c0-1.2-0.2-2-0.6-2.4S103.6,7.3,102.5,7.3z"/>
	<path fill="#FFFFFF" d="M135.5,0.8l5.6,37.9h-10.1l-0.5-6.8H127l-0.6,6.8h-10.2l5-37.9H135.5z M130.3,25.2c-0.5-4.3-1-9.6-1.5-15.9
		c-1,7.3-1.6,12.6-1.9,15.9H130.3z"/>
	<path fill="#FFFFFF" d="M152.7,0.8v30.4h6v7.6h-15.9V0.8H152.7z"/>
	<path fill="#FFFFFF" d="M186.6,0.8l5.6,37.9h-10.1l-0.5-6.8h-3.5l-0.6,6.8h-10.2l5-37.9H186.6z M181.4,25.2
		c-0.5-4.3-1-9.6-1.5-15.9c-1,7.3-1.6,12.6-1.9,15.9H181.4z"/>
	<path fill="#FFFFFF" d="M214.9,12.3h-9.2V9.5c0-1.3-0.1-2.1-0.4-2.5s-0.6-0.5-1.2-0.5c-0.6,0-1,0.2-1.3,0.7
		c-0.3,0.5-0.5,1.2-0.5,2.2c0,1.3,0.2,2.2,0.5,2.9c0.3,0.6,1.3,1.4,2.8,2.3c4.4,2.6,7.2,4.7,8.3,6.4s1.7,4.4,1.7,8.1
		c0,2.7-0.3,4.7-0.9,6s-1.9,2.4-3.7,3.2s-3.9,1.3-6.3,1.3c-2.6,0-4.9-0.5-6.8-1.5s-3.1-2.3-3.7-3.8s-0.9-3.7-0.9-6.6v-2.5h9.2v4.6
		c0,1.4,0.1,2.3,0.4,2.7s0.7,0.6,1.4,0.6s1.1-0.3,1.5-0.8s0.5-1.3,0.5-2.3c0-2.2-0.3-3.7-0.9-4.4c-0.6-0.7-2.2-1.8-4.6-3.4
		c-2.5-1.6-4.1-2.8-4.9-3.5s-1.5-1.8-2-3s-0.8-3-0.8-5c0-2.9,0.4-5,1.1-6.4s1.9-2.4,3.6-3.2s3.7-1.1,6-1.1c2.6,0,4.7,0.4,6.6,1.2
		s3,1.9,3.6,3.1s0.9,3.4,0.9,6.4V12.3z"/>
	<path fill="#FFFFFF" d="M239.7,12.3h-9.2V9.5c0-1.3-0.1-2.1-0.4-2.5s-0.6-0.5-1.2-0.5c-0.6,0-1,0.2-1.3,0.7
		c-0.3,0.5-0.5,1.2-0.5,2.2c0,1.3,0.2,2.2,0.5,2.9c0.3,0.6,1.3,1.4,2.8,2.3c4.4,2.6,7.2,4.7,8.3,6.4s1.7,4.4,1.7,8.1
		c0,2.7-0.3,4.7-0.9,6s-1.9,2.4-3.7,3.2s-3.9,1.3-6.3,1.3c-2.6,0-4.9-0.5-6.8-1.5s-3.1-2.3-3.7-3.8s-0.9-3.7-0.9-6.6v-2.5h9.2v4.6
		c0,1.4,0.1,2.3,0.4,2.7s0.7,0.6,1.4,0.6s1.1-0.3,1.5-0.8s0.5-1.3,0.5-2.3c0-2.2-0.3-3.7-0.9-4.4c-0.6-0.7-2.2-1.8-4.6-3.4
		c-2.5-1.6-4.1-2.8-4.9-3.5s-1.5-1.8-2-3s-0.8-3-0.8-5c0-2.9,0.4-5,1.1-6.4s1.9-2.4,3.6-3.2s3.7-1.1,6-1.1c2.6,0,4.7,0.4,6.6,1.2
		s3,1.9,3.6,3.1s0.9,3.4,0.9,6.4V12.3z"/>
	<path fill="#FFFFFF" d="M243.6,0.8H260v7.6h-6.6v7.2h6.2v7.2h-6.2v8.3h7.2v7.6h-17.1V0.8z"/>
	<path fill="#FFFFFF" d="M294,0.8v37.9h-8.6l0-25.6l-3.4,25.6h-6.1l-3.6-25l0,25h-8.6V0.8h12.8c0.4,2.3,0.8,5,1.2,8.1l1.4,9.7
		l2.3-17.7H294z"/>
	<path fill="#FFFFFF" d="M297.9,0.8h9.8c3.1,0,5.5,0.2,7.1,0.7c1.6,0.5,2.9,1.5,3.9,2.9s1.5,3.9,1.5,7.1c0,2.2-0.3,3.8-1,4.6
		s-2.1,1.5-4.1,2c2.3,0.5,3.8,1.4,4.6,2.6s1.2,3,1.2,5.5v3.5c0,2.6-0.3,4.5-0.9,5.7c-0.6,1.2-1.5,2.1-2.8,2.5
		c-1.3,0.5-3.9,0.7-7.9,0.7h-11.4V0.8z M307.8,7.3v8.4c0.4,0,0.8,0,1,0c1,0,1.6-0.2,1.9-0.7s0.4-1.8,0.4-4.1c0-1.2-0.1-2-0.3-2.5
		s-0.5-0.8-0.9-0.9S308.8,7.3,307.8,7.3z M307.8,21.6v10.6c1.4,0,2.3-0.3,2.7-0.7s0.6-1.4,0.6-2.9v-3.5c0-1.6-0.2-2.6-0.5-3
		S309.3,21.7,307.8,21.6z"/>
	<path fill="#FFFFFF" d="M334.3,0.8v30.4h6v7.6h-15.9V0.8H334.3z"/>
	<path fill="#FFFFFF" d="M360.6,0.8L353.4,25v13.7h-9.1V25l-6.9-24.2h9.1c1.4,7.4,2.2,12.4,2.4,15c0.5-4,1.5-9,2.7-15H360.6z"/>
</g>
</svg>
