<?xml version="1.0" encoding="utf-8"?>
<!-- Generator: Adobe Illustrator 16.0.0, SVG Export Plug-In . SVG Version: 6.00 Build 0)  -->
<!DOCTYPE svg PUBLIC "-//W3C//DTD SVG 1.1//EN" "http://www.w3.org/Graphics/SVG/1.1/DTD/svg11.dtd">
<svg version="1.1" id="Capa_1" xmlns="http://www.w3.org/2000/svg" xmlns:xlink="http://www.w3.org/1999/xlink" x="0px" y="0px"
	 width="612.2px" height="612.2px" viewBox="0 0 612.2 612.2" style="enable-background:new 0 0 612.2 612.2;" xml:space="preserve"
	>
<g>
	<g>
		<polygon points="0.1,236.7 0.1,278.4 306.1,41.7 612.1,278.4 612.1,236.7 306.1,0 		"/>
		<polygon points="556.5,163.2 556.5,14.2 473,14.2 473,97.6 500.9,121.9 500.9,42 528.7,42 528.7,139.3 		"/>
		<polygon points="418.2,584.4 418.2,612.2 556.7,612.2 556.7,274.8 528.9,252.6 528.9,584.4 		"/>
		<path d="M222.7,612h166.9V333.8H222.7V612z M250.5,361.6h111.3v222.5H250.5V361.6z"/>
		<polygon points="55.8,275.9 55.8,612.2 194.3,612.2 194.3,584.4 83.6,584.4 83.6,253.4 		"/>
	</g>
</g>
</svg>
